<?xml version="1.0" encoding="utf-8"?>
<!-- Generator: Adobe Illustrator 25.0.1, SVG Export Plug-In . SVG Version: 6.00 Build 0)  -->
<svg version="1.1" id="Layer_1" xmlns="http://www.w3.org/2000/svg" xmlns:xlink="http://www.w3.org/1999/xlink" x="0px" y="0px"
	 viewBox="0 0 841.9 595.3" style="enable-background:new 0 0 841.9 595.3;" xml:space="preserve">
<style type="text/css">
	.st0{fill:#222B33;}
	.st1{fill:none;}
	.st2{fill:#F4F4F4;}
	.st3{font-family:'ArialMT';}
	.st4{font-size:24px;}
	.st5{fill:#3E4953;}
	.st6{fill:#DDE1E3;}
	.st7{fill:#B5C1CB;}
	.st8{fill:#516477;}
</style>
<image style="overflow:visible;enable-background:new    ;" width="3264" height="1588" xlink:href="161A55BA.jpeg"  transform="matrix(0.2576 0 0 0.2576 0.4613 186.1285)">
</image>
<g>
	<rect x="1" y="0" class="st0" width="141.8" height="186.4"/>
	<rect x="0.7" y="148.8" class="st1" width="142.2" height="37.6"/>
	<text transform="matrix(0.8403 0 0 1 35.4922 165.8273)" class="st2 st3 st4">#222B33</text>
</g>
<g>
	<rect x="141.9" y="0" class="st5" width="141.8" height="186.4"/>
	<rect x="141.6" y="148.8" class="st1" width="142.2" height="37.6"/>
	<text transform="matrix(0.8403 0 0 1 176.9092 165.8273)" class="st6 st3 st4">#3E4953</text>
</g>
<g>
	<rect x="415.8" y="0" class="st7" width="141.8" height="186.4"/>
	<rect x="415.6" y="148.8" class="st1" width="142.2" height="37.6"/>
	<text transform="matrix(0.8403 0 0 1 448.6719 165.8273)" class="st8 st3 st4">#B5C1CB</text>
</g>
<g>
	<rect x="556.7" y="0" class="st6" width="141.8" height="186.4"/>
	<rect x="556.5" y="148.8" class="st1" width="142.2" height="37.6"/>
	<text transform="matrix(0.8403 0 0 1 588.8555 165.8273)" class="st5 st3 st4">#DDE1E3</text>
</g>
<g>
	<rect x="698.4" y="0" class="st2" width="142.1" height="186.4"/>
	<g>
		<rect x="698.4" y="148.8" class="st1" width="142.2" height="37.6"/>
		<text transform="matrix(0.8403 0 0 1 734.251 165.8273)" class="st0 st3 st4">#F4F4F4</text>
	</g>
</g>
<g>
	<rect x="283.1" y="0" class="st8" width="137.9" height="186.4"/>
	<g>
		<rect x="283" y="148.8" class="st1" width="137.9" height="37.6"/>
		<text transform="matrix(0.8403 0 0 1 315.9375 165.8273)" class="st7 st3 st4">#516477</text>
	</g>
</g>
</svg>
